<svg width="158" height="25" viewBox="0 0 158 25" fill="none" xmlns="http://www.w3.org/2000/svg">
<path d="M155.838 3.24805L155.177 3.44711C154.515 3.44711 154.183 3.04576 154.181 2.30778C154.181 1.50508 154.511 1.03413 155.173 1.03575L155.835 1.23643V1.57143L155.174 1.37075C154.644 1.37075 154.511 1.63778 154.512 2.30778C154.515 2.91143 154.647 3.17846 155.177 3.17846L155.838 2.9794V3.24805ZM155.145 0C153.901 0 152.895 1.00662 152.895 2.24952C152.895 3.49323 153.901 4.49985 155.145 4.49985C156.388 4.49985 157.394 3.49323 157.394 2.24952C157.394 1.00662 156.388 0 155.145 0Z" fill="white"/>
<path d="M0 24.2742V0.000366211H5.1213V10.2195H17.9153V0.000366211H23.0366V24.2742H17.9153V15.3416H5.1213V24.2742H0Z" fill="white"/>
<path d="M43.8166 11.5059V8.9092C43.8166 7.86455 43.4525 6.99063 42.6992 6.26237C41.9466 5.50983 41.0727 5.14651 40.0297 5.14651H33.5489C32.5051 5.14651 31.6304 5.50983 30.8778 6.26237C30.1496 6.99063 29.7854 7.86455 29.7854 8.9092V11.5059H43.8166ZM24.6399 24.2739V8.9092C24.6399 6.45657 25.5138 4.34461 27.2373 2.62187C28.9843 0.874037 31.0963 0.00012207 33.5489 0.00012207H40.0297C42.5058 0.00012207 44.6177 0.874037 46.3405 2.59678C48.0648 4.32115 48.9387 6.4323 48.9387 8.9092V24.2739H43.8166V16.6514H29.7854V24.2739H24.6399Z" fill="white"/>
<path d="M55.7852 0.000244141V15.365C55.7852 16.4096 56.1486 17.2835 56.8776 18.0361C57.6294 18.7643 58.5033 19.1285 59.5471 19.1285H69.7185V24.274H59.5471C57.0953 24.274 54.9842 23.4001 53.2363 21.6523C51.5128 19.9296 50.6389 17.8184 50.6389 15.365V0.000244141H55.7852Z" fill="white"/>
<path d="M71.0542 24.2745H76.1763V5.95544H71.0542V24.2745Z" fill="white"/>
<path d="M87.0422 5.14607C86.0226 5.14607 85.1487 5.50939 84.3962 6.26193C83.6679 6.99019 83.3038 7.86411 83.3038 8.88367V15.3903C83.3038 16.4099 83.6679 17.2838 84.3962 18.0363C85.1487 18.7646 86.0226 19.1279 87.0422 19.1279H93.548C94.5676 19.1279 95.4415 18.7646 96.1689 18.0363C96.9223 17.2838 97.2856 16.4099 97.2856 15.3903V8.88367C97.2856 7.86411 96.9223 6.99019 96.1689 6.26193C95.4415 5.50939 94.5676 5.14607 93.548 5.14607H87.0422ZM93.548 0.000488281C95.999 0.000488281 98.1118 0.874404 99.8353 2.59715C101.558 4.3207 102.433 6.43267 102.433 8.88367V15.3903C102.433 17.8413 101.558 19.9533 99.8353 21.6776C98.1118 23.4004 95.999 24.2743 93.548 24.2743H87.0422C84.5904 24.2743 82.4784 23.4004 80.7557 21.6776C79.0321 19.9533 78.1582 17.8413 78.1582 15.3903V8.88367C78.1582 6.43267 79.0321 4.3207 80.7557 2.59715C82.4784 0.874404 84.5904 0.000488281 87.0422 0.000488281H93.548Z" fill="white"/>
<path d="M120.865 5.09715H114.239V24.2739H109.141V5.09715H102.514V0.00012207H120.865V5.09715Z" fill="white"/>
<path d="M122.153 24.2745H127.275V5.95544H122.153V24.2745Z" fill="white"/>
<path d="M135.965 9.51609C136.135 9.53955 137.228 9.53955 139.242 9.53955H139.849H140.019C140.14 9.51609 140.237 9.51609 140.359 9.51609C142.81 9.44326 144.68 9.56383 145.942 9.85594C147.981 10.3156 149.51 11.2623 150.53 12.7431C151.307 13.884 151.694 15.1472 151.694 16.5551C151.694 19.2012 150.19 21.6773 147.859 23.0367C146.451 23.8621 144.946 24.2739 143.344 24.2739H135.916C134.12 24.2739 132.47 23.7649 130.94 22.7697C129.435 21.7736 128.343 20.4384 127.639 18.7885L132.397 16.7494C133.004 18.1816 134.363 19.079 135.916 19.079H143.344C144.68 19.079 145.626 18.5943 146.184 17.6475C146.403 17.2842 146.5 16.9185 146.5 16.5551C146.5 15.5105 145.626 14.9287 143.903 14.7588C142.907 14.6617 141.766 14.6366 140.48 14.711L139.946 14.7345H139.363C136.96 14.8073 135.139 14.6859 133.901 14.3946C131.936 13.9334 130.454 12.9867 129.459 11.5059C128.683 10.39 128.294 9.12768 128.294 7.7189C128.294 5.07368 129.799 2.62187 132.13 1.23817C133.513 0.412804 135.019 0.00012207 136.645 0.00012207H143.223C145.019 0.00012207 146.67 0.509097 148.175 1.5052C149.68 2.50049 150.772 3.81055 151.476 5.48637L146.718 7.52469C146.136 6.09325 144.776 5.19506 143.223 5.19506H136.645C135.309 5.19506 134.363 5.68057 133.805 6.62731C133.586 6.99063 133.488 7.35557 133.488 7.7189C133.488 8.73846 134.315 9.34535 135.965 9.51609Z" fill="white"/>
<path d="M122.153 5.10978H127.275V0.000610352H122.153V5.10978Z" fill="white"/>
<path d="M71.0542 5.10978H76.1763V0.000610352H71.0542V5.10978Z" fill="white"/>
</svg>
